<svg width="86" height="76" viewBox="0 0 86 76" fill="none" xmlns="http://www.w3.org/2000/svg">
<path d="M43.7001 45.1001C45.5592 45.1001 47.3766 44.5488 48.9224 43.5159C50.4682 42.483 51.6731 41.0149 52.3845 39.2973C53.096 37.5797 53.2821 35.6896 52.9194 33.8662C52.5567 32.0428 51.6615 30.3679 50.3469 29.0532C49.0322 27.7386 47.3573 26.8434 45.5339 26.4807C43.7105 26.118 41.8205 26.3041 40.1028 27.0156C38.3852 27.7271 36.9171 28.9319 35.8842 30.4777C34.8514 32.0235 34.3 33.8409 34.3 35.7001C34.3 38.1931 35.2904 40.584 37.0532 42.3469C38.8161 44.1097 41.207 45.1001 43.7001 45.1001ZM43.7001 32.3001C44.3725 32.3001 45.0299 32.4995 45.589 32.8731C46.1481 33.2467 46.5839 33.7777 46.8412 34.3989C47.0986 35.0202 47.1659 35.7038 47.0347 36.3634C46.9035 37.0229 46.5797 37.6287 46.1042 38.1042C45.6287 38.5797 45.0229 38.9035 44.3634 39.0347C43.7038 39.1659 43.0202 39.0986 42.3989 38.8412C41.7777 38.5839 41.2467 38.1481 40.8731 37.589C40.4995 37.0299 40.3 36.3725 40.3 35.7001C40.3 34.7983 40.6583 33.9335 41.2959 33.2959C41.9335 32.6583 42.7983 32.3001 43.7001 32.3001Z" fill="#0C3A2D"/>
<path d="M76.8 7.00005L23.2 0.900047C20.7087 0.618028 18.207 1.33224 16.2401 2.887C14.2733 4.44176 13.0007 6.711 12.7 9.20005L11.9 16.2H11.7C8.78257 16.2 5.98468 17.359 3.92178 19.4219C1.85888 21.4848 0.699951 24.2827 0.699951 27.2V64.1C0.699951 67.0174 1.85888 69.8153 3.92178 71.8782C5.98468 73.9411 8.78257 75.1 11.7 75.1H62.6999C65.4036 75.0916 68.0095 74.0877 70.0201 72.2801C72.0306 70.4724 73.305 67.9876 73.6 65.3C75.4457 64.8099 77.1009 63.7749 78.3496 62.33C79.5983 60.885 80.3825 59.0973 80.6 57.2L85.1 17.5C85.382 15.0088 84.6678 12.5071 83.113 10.5402C81.5582 8.57335 79.289 7.30083 76.8 7.00005ZM11.8 22.3H62.6999C64.026 22.3 65.2978 22.8268 66.2355 23.7645C67.1732 24.7022 67.7 25.974 67.7 27.3V41.6L44.0999 55.3L26.7999 40.2C26.2874 39.7324 25.6286 39.4569 24.9357 39.4205C24.2429 39.384 23.5588 39.5888 23 40L6.79995 51.9V27.3C6.79995 25.974 7.32674 24.7022 8.26442 23.7645C9.2021 22.8268 10.4739 22.3 11.8 22.3ZM62.6999 69.1H11.8C10.4739 69.1 9.2021 68.5733 8.26442 67.6356C7.32674 66.6979 6.79995 65.4261 6.79995 64.1V59.3L24.7 46.3L41.9 61.3C42.3778 61.7116 42.9731 61.962 43.6014 62.0159C44.2298 62.0697 44.8591 61.9242 45.4 61.6L67.7 48.5V64.1C67.7 65.4261 67.1732 66.6979 66.2355 67.6356C65.2978 68.5733 64.026 69.1 62.6999 69.1ZM79.2 16.8L74.7 56.5C74.6239 57.2958 74.2698 58.0394 73.7 58.6V27.3C73.7 24.3827 72.541 21.5848 70.4781 19.5219C68.4152 17.459 65.6173 16.3 62.6999 16.3H18L18.7 10C18.8009 9.0885 19.2556 8.25298 19.9662 7.67324C20.6769 7.09351 21.5867 6.81586 22.5 6.90005L76.1 13C77.0115 13.101 77.847 13.5557 78.4268 14.2663C79.0065 14.977 79.2841 15.8868 79.2 16.8Z" fill="#0C3A2D"/>
</svg>
