<svg width="61" height="61" viewBox="0 0 61 61" fill="none" xmlns="http://www.w3.org/2000/svg">
<path d="M44.2799 28.3239C44.2799 27.1258 44.1826 26.2515 43.9723 25.3448H30.2914V30.7524H38.3218C38.16 32.0963 37.2857 34.1201 35.3428 35.48L35.3155 35.661L39.6412 39.012L39.9409 39.0419C42.6932 36.5001 44.2799 32.76 44.2799 28.3239Z" fill="#4285F4"/>
<path d="M30.2913 42.5715C34.2256 42.5715 37.5284 41.2762 39.9408 39.042L35.3427 35.48C34.1123 36.3381 32.4608 36.9371 30.2913 36.9371C26.438 36.9371 23.1676 34.3953 22.0018 30.882L21.8309 30.8965L17.333 34.3774L17.2742 34.541C19.6703 39.301 24.5922 42.5715 30.2913 42.5715Z" fill="#34A853"/>
<path d="M22.0018 30.8819C21.6942 29.9752 21.5162 29.0037 21.5162 28C21.5162 26.9961 21.6942 26.0247 21.9856 25.118L21.9775 24.9249L17.4232 21.3881L17.2742 21.4589C16.2866 23.4342 15.72 25.6524 15.72 28C15.72 30.3476 16.2866 32.5656 17.2742 34.5409L22.0018 30.8819Z" fill="#FBBC05"/>
<path d="M30.2913 19.0628C33.0275 19.0628 34.8732 20.2447 35.9256 21.2324L40.038 17.2172C37.5123 14.8695 34.2256 13.4286 30.2913 13.4286C24.5923 13.4286 19.6703 16.699 17.2742 21.459L21.9856 25.1181C23.1676 21.6048 26.438 19.0628 30.2913 19.0628Z" fill="#EB4335"/>
</svg>
