<svg width="14" height="14" viewBox="0 0 14 14" fill="none" xmlns="http://www.w3.org/2000/svg">
<path d="M0.875 8.68579H1.98917L4.90583 10.36C5.54409 10.7223 6.26606 10.9114 7 10.9083" stroke="#0C3A2D" stroke-width="0.8" stroke-miterlimit="10"/>
<path d="M11.1768 9.16412L12.0109 8.68579H13.1251" stroke="#0C3A2D" stroke-width="0.8" stroke-miterlimit="10"/>
<path d="M6.99988 10.9083C7.72987 10.9094 8.44756 10.7204 9.08238 10.36L10.249 9.67751L8.10238 6.45751L6.55655 6.84251C6.4055 6.87787 6.25084 6.89549 6.09571 6.89501C5.80224 6.89506 5.51274 6.82717 5.24988 6.69668C5.10034 6.62305 4.97513 6.50798 4.88916 6.36518C4.8032 6.22238 4.76011 6.05787 4.76503 5.89126C4.76995 5.72466 4.82267 5.56298 4.9169 5.42549C5.01114 5.28801 5.14293 5.18053 5.29655 5.11585L8.25988 3.85001C8.59492 3.70773 8.96004 3.65084 9.32248 3.68444C9.68493 3.71803 10.0334 3.84107 10.3365 4.04251L11.4565 4.78335H13.1249" stroke="#0C3A2D" stroke-width="0.8" stroke-miterlimit="10"/>
<path d="M0.875 4.78335H2.54333L3.66333 4.04251C3.96651 3.84107 4.31495 3.71803 4.6774 3.68444C5.03984 3.65084 5.40496 3.70773 5.74 3.85001L7 4.39252" stroke="#0C3A2D" stroke-width="0.8" stroke-miterlimit="10"/>
<path d="M13.125 3.67505V9.80005" stroke="#0C3A2D" stroke-width="0.8" stroke-miterlimit="10"/>
<path d="M0.875 3.67505V9.80005" stroke="#0C3A2D" stroke-width="0.8" stroke-miterlimit="10"/>
</svg>
