<svg width="17" height="17" viewBox="0 0 17 17" fill="none" xmlns="http://www.w3.org/2000/svg">
<path d="M10.7821 8.8466L10.5221 8.4195C10.3538 8.522 10.2614 8.7137 10.2861 8.9092C10.3107 9.1046 10.4478 9.2674 10.6363 9.3249L10.7821 8.8466ZM6.10901 8.8466L6.25484 9.3249C6.4433 9.2674 6.58041 9.1046 6.60511 8.9092C6.62971 8.7137 6.53731 8.522 6.369 8.4195L6.10901 8.8466ZM12.4456 5C12.4456 6.44799 11.6765 7.7168 10.5221 8.4195L11.0421 9.2737C12.4821 8.3971 13.4456 6.8113 13.4456 5H12.4456ZM8.44561 1C10.6547 1 12.4456 2.79086 12.4456 5H13.4456C13.4456 2.23858 11.207 0 8.44561 0V1ZM4.44557 5C4.44557 2.79086 6.23643 1 8.44561 1V0C5.68415 0 3.44557 2.23858 3.44557 5H4.44557ZM6.369 8.4195C5.21465 7.7168 4.44557 6.448 4.44557 5H3.44557C3.44557 6.8113 4.40903 8.3971 5.84903 9.2737L6.369 8.4195ZM5.96319 8.3683C2.80644 9.3309 0.42917 12.0804 0.0110503 15.4402L1.00339 15.5637C1.37199 12.6018 3.46942 10.1742 6.25484 9.3249L5.96319 8.3683ZM0.0110503 15.4402C-0.0994597 16.3282 0.63616 17 1.44557 17V16C1.15042 16 0.97749 15.7719 1.00339 15.5637L0.0110503 15.4402ZM1.44557 17H15.4456V16H1.44557V17ZM15.4456 17C16.255 17 16.9906 16.3282 16.8801 15.4402L15.8877 15.5637C15.9136 15.7719 15.7407 16 15.4456 16V17ZM16.8801 15.4402C16.462 12.0804 14.0847 9.3309 10.9279 8.3683L10.6363 9.3249C13.4217 10.1742 15.5191 12.6018 15.8877 15.5637L16.8801 15.4402Z" fill="#AC7676"/>
</svg>
