<svg width="14" height="14" viewBox="0 0 14 14" fill="none" xmlns="http://www.w3.org/2000/svg">
<g clip-path="url(#clip0_1_548)">
<path d="M13.125 8.11426H0.875V13.1251H13.125V8.11426Z" stroke="#0C3A2D" stroke-width="0.8" stroke-miterlimit="10"/>
<path d="M2.82321 10.8967C2.97785 10.8967 3.10321 10.7713 3.10321 10.6167C3.10321 10.462 2.97785 10.3367 2.82321 10.3367C2.66857 10.3367 2.54321 10.462 2.54321 10.6167C2.54321 10.7713 2.66857 10.8967 2.82321 10.8967Z" stroke="#0C3A2D" stroke-width="0.8" stroke-miterlimit="10"/>
<path d="M5.60593 10.8967C5.76057 10.8967 5.88593 10.7713 5.88593 10.6167C5.88593 10.462 5.76057 10.3367 5.60593 10.3367C5.45129 10.3367 5.32593 10.462 5.32593 10.6167C5.32593 10.7713 5.45129 10.8967 5.60593 10.8967Z" stroke="#0C3A2D" stroke-width="0.8" stroke-miterlimit="10"/>
<path d="M8.39426 10.8967C8.5489 10.8967 8.67426 10.7713 8.67426 10.6167C8.67426 10.462 8.5489 10.3367 8.39426 10.3367C8.23962 10.3367 8.11426 10.462 8.11426 10.6167C8.11426 10.7713 8.23962 10.8967 8.39426 10.8967Z" stroke="#0C3A2D" stroke-width="0.8" stroke-miterlimit="10"/>
<path d="M11.1767 10.8967C11.3314 10.8967 11.4567 10.7713 11.4567 10.6167C11.4567 10.462 11.3314 10.3367 11.1767 10.3367C11.0221 10.3367 10.8967 10.462 10.8967 10.6167C10.8967 10.7713 11.0221 10.8967 11.1767 10.8967Z" stroke="#0C3A2D" stroke-width="0.8" stroke-miterlimit="10"/>
<path d="M8.67429 3.10327H5.33179V5.88577H8.67429V3.10327Z" stroke="#0C3A2D" stroke-width="0.8" stroke-miterlimit="10"/>
<path d="M6.99991 0.875C7.2954 0.875 7.5788 0.992385 7.78774 1.20133C7.99669 1.41028 8.11408 1.69367 8.11408 1.98917V3.10333H5.88574V1.98917C5.88574 1.69367 6.00313 1.41028 6.21207 1.20133C6.42102 0.992385 6.70441 0.875 6.99991 0.875Z" stroke="#0C3A2D" stroke-width="0.8" stroke-miterlimit="10"/>
</g>
<defs>
<clipPath id="clip0_1_548">
<rect width="14" height="14" fill="white"/>
</clipPath>
</defs>
</svg>
