<svg width="14" height="14" viewBox="0 0 14 14" fill="none" xmlns="http://www.w3.org/2000/svg">
<g clip-path="url(#clip0_1_585)">
<path d="M0.875 3.09161V8.65661C0.875 9.24761 1.10977 9.81439 1.52766 10.2323C1.94556 10.6502 2.51234 10.8849 3.10333 10.8849H4.2175V12.5533L7.58333 10.8849H10.9258C11.5168 10.8849 12.0836 10.6502 12.5015 10.2323C12.9194 9.81439 13.1542 9.24761 13.1542 8.65661V3.09161C13.1542 2.50062 12.9194 1.93384 12.5015 1.51594C12.0836 1.09805 11.5168 0.863281 10.9258 0.863281H3.10333C2.51234 0.863281 1.94556 1.09805 1.52766 1.51594C1.10977 1.93384 0.875 2.50062 0.875 3.09161Z" stroke="#0C3A2D" stroke-width="0.8" stroke-miterlimit="10"/>
<path d="M6.99991 6.99989V6.33489C6.99968 6.18856 7.02842 6.04363 7.08449 5.90847C7.14056 5.77331 7.22284 5.65059 7.32658 5.54739L7.78741 5.08655C7.99586 4.87738 8.11326 4.59435 8.11408 4.29905V4.19989C8.11253 3.9054 7.99447 3.62351 7.78569 3.41582C7.57691 3.20813 7.2944 3.09155 6.99991 3.09155C6.70542 3.09155 6.42291 3.20813 6.21413 3.41582C6.00535 3.62351 5.88728 3.9054 5.88574 4.19989" stroke="#0C3A2D" stroke-width="0.8" stroke-miterlimit="10"/>
<path d="M6.4458 8.10254H7.55413" stroke="#0C3A2D" stroke-width="0.8" stroke-miterlimit="10"/>
</g>
<defs>
<clipPath id="clip0_1_585">
<rect width="14" height="14" fill="white"/>
</clipPath>
</defs>
</svg>
